# AST/ASF file generated using VICON BodyLanguage
# -----------------------------------------------
:version 1.10
:name VICON
:units
  mass 1.0
  length 0.45
  angle deg
:documentation
   .ast/.asf automatically generated from VICON data using
   VICON BodyBuilder and BodyLanguage model FoxedUp or BRILLIANT.MOD
:root
   order TX TY TZ RX RY RZ
   axis XYZ
   position 0 0 0  
   orientation 0 0 0 
:bonedata
  begin
     id 1 
     name lhipjoint
     direction 0.522423 -0.726805 0.445902 
     length 2.25074 
     axis 0 0 0  XYZ
  end
  begin
     id 2 
     name lfemur
     direction 0.34202 -0.939693 0  
     length 6.54609  
     axis 0 0 20  XYZ
    dof rx ry rz
    limits (-160.0 20.0)
           (-70.0 70.0)
           (-60.0 70.0)
  end
  begin
     id 3 
     name ltibia
     direction 0.34202 -0.939693 0   
     length 7.7528   
     axis 0 0 20   XYZ
    dof rx
    limits (-10.0 170.0)
  end
  begin
     id 4 
     name lfoot
     direction 0.143696 -0.394801 0.90746   
     length 1.73269   
     axis -90 7.62852e-016 20   XYZ
    dof rx rz
    limits (-45.0 90.0)
           (-70.0 20.0)
  end
  begin
     id 5 
     name ltoes
     direction 1.53633e-011 -4.21912e-011 1   
     length 0.858383   
     axis -90 7.62852e-016 20   XYZ
    dof rx
    limits (-90.0 20.0)
  end
  begin
     id 6 
     name rhipjoint
     direction -0.515943 -0.73016 0.447961   
     length 2.2404  
     axis 0 0 0  XYZ 
  end
  begin
     id 7 
     name rfemur
     direction -0.34202 -0.939693 0   
     length 6.84377   
     axis 0 0 -20   XYZ
    dof rx ry rz
    limits (-160.0 20.0)
           (-70.0 70.0)
           (-70.0 60.0)
  end
  begin
     id 8 
     name rtibia
     direction -0.34202 -0.939693 0   
     length 7.57596   
     axis 0 0 -20   XYZ
    dof rx
    limits (-10.0 170.0)
 end
 begin
     id 9 
     name rfoot
     direction -0.0999372 -0.274575 0.956358   
     length 1.78783  
     axis -90 -7.62852e-016 -20   XYZ
    dof rx rz
    limits (-45.0 90.0)
           (-20.0 70.0)
  end
  begin
     id 10 
     name rtoes
     direction -1.53535e-011 -4.21895e-011 1   
     length 0.898614   
     axis -90 -7.62852e-016 -20   XYZ
    dof rx
    limits (-90.0 20.0)
  end
  begin
     id 11 
     name lowerback
     direction -0.011775 0.996164 -0.0867116   
     length 1.91499   
     axis 0 0 0   XYZ
    dof rx ry rz
    limits (-20.0 45.0)
           (-30.0 30.0)
           (-30.0 30.0)
  end
  begin
     id 12 
     name upperback
     direction -0.00189771 0.999673 -0.0254833   
     length 1.92213   
     axis 0 0 0   XYZ
    dof rx ry rz
    limits (-20.0 45.0)
           (-30.0 30.0)
           (-30.0 30.0)
  end
  begin
     id 13 
     name thorax
     direction 0.00335995 0.999878 0.0152401   
     length 1.93138   
     axis 0 0 0   XYZ
    dof rx ry rz
    limits (-20.0 45.0)
           (-30.0 30.0)
           (-30.0 30.0)
  end
  begin
     id 14 
     name lowerneck
     direction 0.00233191 0.998509 0.0545404   
     length 1.59408   
     axis 0 0 0   XYZ
    dof rx ry rz
    limits (-20.0 45.0)
           (-30.0 30.0)
           (-30.0 30.0)
  end
  begin
     id 15 
     name upperneck
     direction 0.07881 0.9956 -0.0506934   
     length 1.59344   
     axis 0 0 0   XYZ
    dof rx ry rz
    limits (-20.0 45.0)
           (-30.0 30.0)
           (-30.0 30.0)
  end
  begin
     id 16
     name head
     direction 0.0261681 0.999378 -0.0236299  
     length 1.60935  
     axis 0 0 0   XYZ
    dof rx ry rz
    limits (-20.0 45.0)
           (-30.0 30.0)
           (-30.0 30.0)
  end
  begin
     id 17 
     name lclavicle
     direction 0.96643 0.252035 0.0499195  
     length 3.82153  
     axis 0 0 0   XYZ
    dof ry rz
    limits (-20.0 10.0)
           (0.0 20.0)
  end
  begin
     id 18 
     name lhumerus
     direction 1 -4.48967e-011 -2.01614e-018   
     length 4.87796   
     axis 180 -30 -90   XYZ
    dof rx ry rz
    limits (-60.0 90.0)
           (-90.0 90.0)
           (-90.0 90.0)
  end
  begin
     id 19
     name lradius
     direction 1 -4.48958e-011 3.1409e-027   
     length 3.23169   
     axis 180 -30 -90   XYZ
    dof rx
    limits (-10.0 170.0)
  end
  begin
     id 20
     name lwrist
     direction 1 -4.48924e-011 1.0365e-027   
     length 1.61584   
     axis -2.56395e-016 90 90   XYZ
    dof ry
    limits (-180.0 0.0)
 end
  begin
     id 21 
     name lhand
     direction 1 -4.49055e-011 2.09488e-027   
     length 0.731324   
     axis -1.32723e-015 90 90   XYZ
    dof rx rz
    limits (-90.0 90.0)
           (-45.0 45.0)
  end
  begin
     id 22 
     name lfingers
     direction 1 -4.48935e-011 4.14981e-027   
     length 0.589612   
     axis -2.6545e-015 90 90   XYZ
    dof rx
    limits (0.0 90.0)
  end
  begin
     id 23
     name lthumb
     direction 0.707107 -6.35097e-011 0.707107   
     length 0.846569   
     axis -90 45 5.05613e-014   XYZ
    dof rx rz
    limits (-45.0 45.0)
           (-45.0 45.0)
  end
  begin
     id 24 
     name rclavicle
     direction -0.979337 0.201016 0.0221522   
     length 3.73827  
     axis 0 0 0   XYZ 
    dof ry rz
    limits (-10.0 20.0)
           (-20.0 0.0)
  end
  begin
     id 25 
     name rhumerus
     direction -1 -4.48971e-011 1.65907e-027  
     length 4.9143   
     axis 180 30 90   XYZ
    dof rx ry rz
    limits (-90.0 60.0)
           (-90.0 90.0)
           (-90.0 90.0)
  end
  begin
     id 26 
     name rradius
     direction -1 -4.4894e-011 2.17871e-028   
     length 3.29093   
     axis 180 30 90   XYZ
    dof rx
    limits (-10.0 170.0)
  end
  begin
     id 27 
     name rwrist
     direction -1 -4.48971e-011 1.04038e-027   
     length 1.64546   
     axis -2.56395e-016 -90 -90   XYZ
    dof ry
    limits (-180.0 0.0)
  end
  begin
     id 28
     name rhand
     direction -1 -4.49017e-011 2.08843e-027   
     length 0.54512   
     axis -1.32723e-015 -90 -90   XYZ
    dof rx rz
    limits (-90.0 90.0)
           (-45.0 45.0)
  end
  begin
     id 29
     name rfingers
     direction -1 -4.48918e-011 4.1439e-027   
     length 0.43949   
     axis -2.6545e-015 -90 -90   XYZ
    dof rx
    limits (0.0 90.0)
  end
  begin
     id 30
     name rthumb
     direction -0.707107 -6.35065e-011 0.707107   
     length 0.631022   
     axis -90 -45 -5.05613e-014   XYZ
    dof rx rz
    limits (-45.0 45.0)
           (-45.0 45.0)
  end
:hierarchy
  begin
    root lhipjoint rhipjoint lowerback
    lhipjoint lfemur
    lfemur ltibia
    ltibia lfoot
    lfoot ltoes
    rhipjoint rfemur
    rfemur rtibia
    rtibia rfoot
    rfoot rtoes
    lowerback upperback
    upperback thorax
    thorax lowerneck lclavicle rclavicle
    lowerneck upperneck
    upperneck head
    lclavicle lhumerus
    lhumerus lradius
    lradius lwrist
    lwrist lhand lthumb
    lhand lfingers
    rclavicle rhumerus
    rhumerus rradius
    rradius rwrist
    rwrist rhand rthumb
    rhand rfingers
  end

#!OML:ASF H:\BreakDance\Project 1\Capture day 1\Session 1\Male.ASF
:FULLY-SPECIFIED
:DEGREES
890
root 13.184 6.90103 6.52027 98.019 -48.75 -59.6147
lowerback 18.0161 8.49178 3.36996
upperback 12.4168 10.2699 -1.47569
thorax 4.39134 4.95471 -4.78868
lowerneck 28.6685 31.5255 -12.897
upperneck -41.2831 43.3309 -11.1201
head -19.2869 18.9408 -13.1131
rclavicle 1.11319e-014 -4.27387e-014
rhumerus 51.9728 25.367 -53.1643
rradius 38.9869
rwrist 6.97717
rhand -58.7407 -69.8299
rfingers 7.12502
rthumb -30.9522 817.24
lclavicle 1.11319e-014 -4.27387e-014
lhumerus 11.764 -9.70845 75.3196
lradius 44.935
lwrist -5.06971
lhand -26.0031 12.2505
lfingers 7.12502
lthumb 0.542726 -317.77
rfemur -95.3355 -23.671 4.18409
rtibia 68.9081
rfoot -9.37945 12.2838
rtoes -30.5379
lfemur -63.7595 -8.06515 -43.2801
ltibia 95.8823
lfoot -4.53758 -32.6362
ltoes 4.69156
891
root 13.1331 6.98988 6.52165 98.1381 -48.4976 -59.1008
lowerback 17.9633 8.46534 3.16254
upperback 12.515 10.1995 -1.34425
thorax 4.4502 4.89874 -4.52005
lowerneck 29.0756 31.6679 -12.4178
upperneck -41.3847 43.6061 -11.5104
head -19.1162 19.0365 -13.2909
rclavicle -1.09729e-013 5.11871e-014
rhumerus 52.2217 25.0126 -53.9604
rradius 38.4861
rwrist 7.50251
rhand -59.0408 -69.4097
rfingers 7.12502
rthumb -31.2382 816.765
lclavicle -1.09729e-013 5.11871e-014
lhumerus 12.386 -10.2791 74.5884
lradius 44.3702
lwrist -4.21876
lhand -26.1262 12.1233
lfingers 7.12502
lthumb 0.423878 -317.897
rfemur -95.5908 -23.737 4.88941
rtibia 68.7509
rfoot -9.68228 12.3083
rtoes -30.3187
lfemur -64.0621 -7.8811 -42.3684
ltibia 95.6226
lfoot -4.0901 -33.3561
ltoes 5.74295
892
root 13.0826 7.07996 6.52271 98.1808 -48.2809 -58.5008
lowerback 17.9985 8.43694 2.91283
upperback 12.5763 10.1248 -1.1904
thorax 4.41041 4.83522 -4.22115
lowerneck 29.2577 31.7749 -12.1206
upperneck -41.1813 43.9154 -11.4385
head -18.9514 19.0978 -13.265
rclavicle 1.31993e-013 -1.04561e-013
rhumerus 52.4894 24.7528 -54.6045
rradius 38.0063
rwrist 7.73313
rhand -59.4298 -69.511
rfingers 7.12502
rthumb -31.6089 816.795
lclavicle 1.31993e-013 -1.04561e-013
lhumerus 12.9543 -10.8504 73.9337
lradius 43.899
lwrist -3.33866
lhand -26.2529 12.0406
lfingers 7.12502
lthumb 0.301532 -317.98
rfemur -95.8501 -23.8724 5.63558
rtibia 68.6442
rfoot -9.93294 12.1923
rtoes -30.2409
lfemur -64.3873 -7.75492 -41.5245
ltibia 95.3645
lfoot -3.61291 -33.9928
ltoes 6.3553
893
root 13.0328 7.17158 6.52292 98.145 -48.0903 -57.8091
lowerback 18.1697 8.39896 2.65956
upperback 12.5831 10.0412 -1.02822
thorax 4.23874 4.76525 -3.93403
lowerneck 29.1857 31.8463 -12.046
upperneck -40.6877 44.2534 -10.892
head -18.8155 19.1217 -13.0417
rclavicle 5.56597e-014 -1.33136e-013
rhumerus 52.7733 24.5756 -55.0755
rradius 37.5357
rwrist 7.82627
rhand -59.8096 -70.215
rfingers 7.12502
rthumb -31.9705 817.427
lclavicle 5.56597e-014 -1.33136e-013
lhumerus 13.4545 -11.3675 73.3918
lradius 43.5237
lwrist -2.51157
lhand -26.3871 11.9444
lfingers 7.12502
lthumb 0.171829 -318.076
rfemur -96.1068 -24.0777 6.43225
rtibia 68.5713
rfoot -10.1242 11.9331
rtoes -30.3146
lfemur -64.6645 -7.66469 -40.7258
ltibia 95.0694
lfoot -3.05182 -34.5959
ltoes 6.81984
894
root 12.9839 7.2651 6.52417 98.0661 -47.9265 -57.0519
lowerback 18.4368 8.36021 2.41329
upperback 12.5506 9.9593 -0.867739
thorax 3.97861 4.6964 -3.66835
lowerneck 28.8726 31.8586 -12.2357
upperneck -39.9546 44.5771 -9.8697
head -18.7569 19.0886 -12.642
rclavicle 1.49486e-013 2.82026e-014
rhumerus 53.0568 24.4192 -55.3805
rradius 37.0873
rwrist 7.95464
rhand -60.0938 -71.0929
rfingers 7.12502
rthumb -32.2412 818.25
lclavicle 1.49486e-013 2.82026e-014
lhumerus 13.876 -11.8129 72.9554
lradius 43.2755
lwrist -1.77941
lhand -26.5381 11.8073
lfingers 7.12502
lthumb 0.0259993 -318.213
rfemur -96.3653 -24.3429 7.26644
rtibia 68.5022
rfoot -10.2535 11.5678
rtoes -30.4769
lfemur -64.9634 -7.60402 -39.9763
ltibia 94.7508
lfoot -2.30226 -35.1929
ltoes 7.40774
895
root 12.9362 7.35955 6.52624 97.9901 -47.7978 -56.2596
lowerback 18.7132 8.30471 2.22162
upperback 12.5059 9.86358 -0.769439
thorax 3.72441 4.6287 -3.4953
lowerneck 28.3438 31.8123 -12.6446
upperneck -39.081 44.8986 -8.46751
head -18.7873 19.0101 -12.1183
rclavicle -1.00187e-013 3.0824e-014
rhumerus 53.3487 24.2287 -55.6033
rradius 36.6794
rwrist 8.19844
rhand -60.2748 -71.5375
rfingers 7.12502
rthumb -32.4134 818.66
lclavicle -1.00187e-013 3.0824e-014
lhumerus 14.2785 -12.1774 72.5155
lradius 43.1287
lwrist -1.16692
lhand -26.698 11.6123
lfingers 7.12502
lthumb -0.128437 -318.408
rfemur -96.6561 -24.6516 8.1092
rtibia 68.421
rfoot -10.3224 11.147
rtoes -30.6359
lfemur -65.2375 -7.53105 -39.2772
ltibia 94.3753
lfoot -1.39202 -35.8092
ltoes 8.323
896
root 12.889 7.45357 6.52845 97.9562 -47.7091 -55.462
lowerback 18.9138 8.24586 2.07057
upperback 12.4723 9.76889 -0.737341
thorax 3.54328 4.56946 -3.40017
lowerneck 27.6793 31.7192 -13.0993
upperneck -38.0993 45.226 -6.84667
head -18.8354 18.9134 -11.519
rclavicle -1.20861e-013 -5.0336e-014
rhumerus 53.6326 23.9684 -55.7912
rradius 36.3126
rwrist 8.55451
rhand -60.3851 -71.1236
rfingers 7.12502
rthumb -32.5184 818.224
lclavicle -1.20861e-013 -5.0336e-014
lhumerus 14.7676 -12.4668 72.0802
lradius 42.9781
lwrist -0.720603
lhand -26.8649 11.3654
lfingers 7.12502
lthumb -0.289616 -318.655
rfemur -97.0028 -24.9809 8.92797
rtibia 68.3192
rfoot -10.3378 10.7213
rtoes -30.7316
lfemur -65.5392 -7.47743 -38.6338
ltibia 93.9637
lfoot -0.440996 -36.3772
ltoes 9.33418
897
root 12.842 7.54587 6.53074 98.0057 -47.6512 -54.7017
lowerback 18.9625 8.19431 1.95571
upperback 12.4781 9.68725 -0.766092
thorax 3.5031 4.52443 -3.3648
lowerneck 26.8808 31.6021 -13.5384
upperneck -36.9868 45.5866 -5.06
head -18.8544 18.8235 -10.8549
rclavicle 1.59028e-014 5.29264e-015
rhumerus 53.9516 23.6412 -55.9302
rradius 35.9648
rwrist 8.92336
rhand -60.4489 -70.03
rfingers 7.12502
rthumb -32.5791 817.118
lclavicle 1.59028e-014 5.29264e-015
lhumerus 15.3918 -12.6964 71.628
lradius 42.8059
lwrist -0.41425
lhand -27.0377 11.1104
lfingers 7.12502
lthumb -0.456518 -318.91
rfemur -97.4203 -25.2975 9.71127
rtibia 68.1919
rfoot -10.302 10.3425
rtoes -30.7643
lfemur -65.8887 -7.4421 -38.037
ltibia 93.522
lfoot 0.505681 -36.9025
ltoes 10.422
898
root 12.7947 7.63687 6.53405 98.1472 -47.6039 -54.0178
lowerback 18.8783 8.17278 1.85753
upperback 12.5261 9.64409 -0.830665
thorax 3.59026 4.50264 -3.35949
lowerneck 26.031 31.4694 -13.865
upperneck -35.8018 45.9526 -3.25539
head -18.8136 18.7495 -10.1779
rclavicle 6.20208e-014 1.90336e-014
rhumerus 54.3288 23.27 -55.9436
rradius 35.6205
rwrist 9.18026
rhand -60.4751 -69.1248
rfingers 7.12502
rthumb -32.604 816.208
lclavicle 6.20208e-014 1.90336e-014
lhumerus 16.189 -12.8925 71.1844
lradius 42.5606
lwrist -0.193301
lhand -27.2062 10.8749
lfingers 7.12502
lthumb -0.61927 -319.146
rfemur -97.8794 -25.5587 10.4581
rtibia 68.0343
rfoot -10.2247 10.0372
rtoes -30.7537
lfemur -66.266 -7.38748 -37.4644
ltibia 93.0508
lfoot 1.39492 -37.379
ltoes 11.4551
899
root 12.7469 7.72733 6.5386 98.3747 -47.5481 -53.4273
lowerback 18.7297 8.21468 1.71064
upperback 12.5896 9.67428 -0.874515
thorax 3.72012 4.51283 -3.30707
lowerneck 25.1867 31.2994 -14.0887
upperneck -34.5892 46.2429 -1.48834
head -18.7316 18.67 -9.50446
rclavicle 1.27222e-014 2.65378e-014
rhumerus 54.7328 22.8895 -55.7349
rradius 35.2797
rwrist 9.27561
rhand -60.4776 -69.6069
rfingers 7.12502
rthumb -32.6064 816.689
lclavicle 1.27222e-014 2.65378e-014
lhumerus 17.1391 -13.1001 70.8209
lradius 42.1944
lwrist 0.0773388
lhand -27.395 10.6395
lfingers 7.12502
lthumb -0.801632 -319.382
rfemur -98.3551 -25.7401 11.1787
rtibia 67.846
rfoot -10.1195 9.79324
rtoes -30.744
lfemur -66.6577 -7.28363 -36.8941
ltibia 92.5526
lfoot 2.32657 -37.8512
ltoes 12.6703
900
root 12.6984 7.81826 6.54479 98.6718 -47.4695 -52.9457
lowerback 18.5779 8.26339 1.57713
upperback 12.6615 9.71322 -0.951789
thorax 3.87101 4.52909 -3.29642
lowerneck 24.324 31.128 -14.3212
upperneck -33.4694 46.5103 0.181823
head -18.6708 18.6041 -8.87874
rclavicle 3.18055e-014 -1.3418e-014
rhumerus 55.236 22.5801 -55.3588
rradius 34.942
rwrist 9.22437
rhand -60.4601 -72.4142
rfingers 7.12502
rthumb -32.5897 819.5
lclavicle 3.18055e-014 -1.3418e-014
lhumerus 18.0179 -13.3109 70.3194
lradius 41.9423
lwrist 0.507891
lhand -27.5692 10.4139
lfingers 7.12502
lthumb -0.969851 -319.609
rfemur -98.8122 -25.8252 11.889
rtibia 67.6287
rfoot -9.99868 9.58714
rtoes -30.7634
lfemur -67.0313 -7.10124 -36.3129
ltibia 92.0311
lfoot 3.27213 -38.3193
ltoes 13.9718
901
root 12.6495 7.91018 6.55202 99.0025 -47.3625 -52.5374
lowerback 18.4464 8.31559 1.46449
upperback 12.737 9.75776 -1.05468
thorax 4.02533 4.54988 -3.32639
lowerneck 23.4619 30.936 -14.6108
upperneck -32.4665 46.7341 1.78978
head -18.6715 18.5331 -8.29332
rclavicle 1.62208e-013 -8.33902e-014
rhumerus 55.82 22.3271 -54.8146
rradius 34.6178
rwrist 9.03662
rhand -60.375 -77.4475
rfingers 7.12502
rthumb -32.5088 824.55
lclavicle 1.62208e-013 -8.33902e-014
lhumerus 18.8858 -13.5452 69.6972
lradius 41.6662
lwrist 0.949578
lhand -27.6558 10.1184
lfingers 7.12502
lthumb -1.0535 -319.904
rfemur -99.2415 -25.8389 12.6093
rtibia 67.3905
rfoot -9.86036 9.39633
rtoes -30.7809
lfemur -67.3795 -6.86394 -35.7183
ltibia 91.4974
lfoot 4.17504 -38.7617
ltoes 15.1965
902
root 12.6006 8.0026 6.55954 99.3401 -47.2336 -52.1719
lowerback 18.3459 8.37037 1.37008
upperback 12.8155 9.80627 -1.17018
thorax 4.17405 4.57364 -3.38337
lowerneck 22.6633 30.7289 -14.9238
upperneck -31.6309 46.9079 3.25684
head -18.7311 18.4572 -7.77344
rclavicle -8.42847e-014 1.35174e-014
rhumerus 56.465 22.1103 -54.1148
rradius 34.3115
rwrist 8.72828
rhand -60.1772 -83.5953
rfingers 7.12502
rthumb -32.3206 830.736
lclavicle -8.42847e-014 1.35174e-014
lhumerus 19.732 -13.8036 68.9847
lradius 41.4135
lwrist 1.24202
lhand -27.6637 9.83626
lfingers 7.12502
lthumb -1.06107 -320.187
rfemur -99.6576 -25.8188 13.3641
rtibia 67.1438
rfoot -9.69118 9.21955
rtoes -30.7779
lfemur -67.7032 -6.60773 -35.1254
ltibia 90.9653
lfoot 4.94087 -39.1475
ltoes 16.1462
